<svg xmlns="http://www.w3.org/2000/svg" viewBox="0 0 70.7 70.7">
<!-- SVG created with Arrow, by QuiverAI (https://quiver.ai) -->
  <style type="text/css">.cls-0 {fill:#047857;}
.cls-1 {fill:#10b981;}
.cls-2 {fill:#047857;}
.cls-3 {fill:#DF362C;}
.cls-4 {fill:#F6861F;}
.cls-5 {fill:#020617;}</style>
  <path class="cls-1" d="m77.6 31.2v2.6h4.6v1.9h-4.6v4h-2.5v-10.4h7.7v1.9h-5.2z"/>
  <path class="cls-1" d="m84 29.3c0-0.7 0.5-1.3 1.4-1.3s1.5 0.5 1.5 1.3c0 0.7-0.6 1.3-1.4 1.3-1 0-1.5-0.5-1.5-1.3zm0.3 2.4h2.3v8h-2.3v-8z"/>
  <path class="cls-1" d="m93.5 31.6v2.1h-0.5c-1.2 0-2 0.7-2 2.1v3.9h-2.3v-8h2.2v1c0.5-0.7 1.4-1.1 2.6-1.1z"/>
  <path class="cls-1" d="m102.4 36.3h-5.9c0.2 1 1 1.5 2.1 1.5 0.8 0 1.4-0.2 1.9-0.7l1.2 1.3c-0.7 0.8-1.8 1.3-3.2 1.3-2.6 0-4.5-1.6-4.5-4s1.8-4 4.1-4 4.1 1.5 4.1 4c0.2 0.2 0.2 0.4 0.2 0.6zm-5.9-1.2h3.7c-0.1-0.9-0.8-1.6-1.8-1.6s-1.7 0.6-1.9 1.6z"/>
  <path class="cls-1" d="m112.3 35.7c0 2.4-1.7 4-3.8 4-1 0-1.8-0.3-2.4-1v0.9h-2.3v-11.1h2.3v3.9c0.6-0.6 1.3-0.9 2.3-0.9 2.2 0.1 3.9 1.6 3.9 4.2zm-2.4 0c0-1.3-0.8-2.1-1.9-2.1s-2 0.8-2 2.1 0.8 2.1 1.9 2.1c1.2 0 2-0.8 2-2.1z"/>
  <path class="cls-1" d="m121.7 36.3h-5.8c0.2 1 1 1.5 2.1 1.5 0.8 0 1.4-0.2 1.9-0.7l1.2 1.3c-0.7 0.8-1.8 1.3-3.2 1.3-2.6 0-4.5-1.6-4.5-4s1.8-4.1 4.1-4.1 4.1 1.5 4.1 4c0.1 0.3 0.1 0.5 0.1 0.7zm-5.9-1.2h3.7c-0.1-0.9-0.8-1.6-1.8-1.6s-1.8 0.6-1.9 1.6z"/>
  <path class="cls-1" d="m123.2 28.5h2.3v11h-2.3v-11z"/>
  <path class="cls-1" d="m127.5 28.5h2.3v11.1h-2.3v-11.1z"/>
  <path class="cls-1" d="m139.9 31.7-3.4 8.2c-0.7 1.9-1.7 2.6-3.2 2.6-0.8 0-1.6-0.3-2.3-0.7l0.8-1.6c0.4 0.3 0.9 0.5 1.3 0.5 0.6 0 1-0.3 1.2-0.9l-3.4-8.1h2.5l2.2 5.2 2.2-5.2h2.1z"/>
  <path class="cls-1" d="m147.8 31.2v2.6h4.7v2h-4.6v3.8h-2.6v-10.4h7.9v2h-5.4z"/>
  <path class="cls-1" d="m154.3 29.3c0-0.7 0.5-1.4 1.4-1.4s1.5 0.5 1.5 1.3-0.6 1.3-1.5 1.3-1.4-0.4-1.4-1.2zm0.2 2.4h2.3v7.9h-2.3v-7.9z"/>
  <path class="cls-1" d="m163.9 39.3c-0.4 0.3-1.1 0.4-1.8 0.4-1.8 0-2.9-0.9-2.9-2.7v-3.3h-1.2v-1.9h1.1v-1.9h2.4v1.9h2v1.9h-2v3.3c0 0.6 0.3 1 0.9 1 0.3 0 0.6-0.1 0.9-0.2l0.6 1.5z"/>
  <path class="cls-1" d="m173.8 34.9v4.8h-2.4v-4.4c0-1.2-0.5-1.7-1.5-1.7s-1.8 0.6-1.8 2v4h-2.5v-7.9h2.2v0.9c0.6-0.6 1.5-1 2.6-1 2 0 3.4 1 3.4 3.3z"/>
  <path class="cls-1" d="m183.3 36.3h-5.8c0.2 1 1 1.5 2.1 1.5 0.8 0 1.4-0.2 1.9-0.7l1.2 1.3c-0.7 0.8-1.8 1.3-3.2 1.3-2.6 0-4.3-1.6-4.3-4s1.7-4 4.1-4c2.3 0 4.1 1.5 4.1 4-0.1 0.2-0.1 0.4-0.1 0.6zm-5.8-1.2h3.7c-0.1-0.9-0.8-1.6-1.8-1.6-1.1-0.1-1.8 0.6-1.9 1.6z"/>
  <path class="cls-1" d="m184 38.9 0.7-1.7c0.7 0.4 1.7 0.7 2.7 0.7s1.4-0.3 1.4-0.7c0-1.2-4.6 0.1-4.6-2.9 0-1.5 1.3-2.6 3.6-2.6 1 0 2.2 0.2 2.9 0.6l-0.7 1.7c-0.7-0.4-1.5-0.5-2.2-0.5-1 0-1.4 0.3-1.4 0.7 0 1.2 4.6 0 4.6 2.9 0 1.5-1.3 2.6-3.6 2.6-1.4 0-2.7-0.3-3.4-0.8z"/>
  <path class="cls-1" d="m191.6 38.9 0.7-1.7c0.7 0.4 1.8 0.7 2.7 0.7 1 0 1.4-0.3 1.4-0.7 0-1.2-4.6 0.1-4.6-2.9 0-1.5 1.3-2.6 3.6-2.6 1 0 2.2 0.2 2.5 0.4l-0.6 1.7c-0.7-0.4-1.5-0.5-2.2-0.5-1 0-1.4 0.3-1.4 0.7 0 1.2 4.6 0 4.6 3 0 1.5-1.3 2.6-3.6 2.6-1.2 0.1-2.4-0.2-3.1-0.7z"/>
  <path class="cls-1" d="m5.5 38.6c-0.1-0.8-0.1-1.6-0.1-2.5 0-13.9 11.2-30.5 28.6-30.5 5.3-0.1 10.7 1.4 15.1 4.1l1.9 1.2c1.1-0.6 2.3-0.8 3.8-0.8-4.7-4-11.6-8-20.8-8-18.1 0-31.8 14.7-31.8 33.5 0 6.8 1.9 12.7 5.5 18.4h3.1c-2.6-3.5-5.3-9.5-5.3-13.7v-1.7z"/>
  <path class="cls-1" d="m54.3 56.5c-4.2 4.2-11.4 8-20.4 8-7.3 0-13.9-2.5-20.1-8h-4.1c4.8 5.6 13.2 11.2 24 11.2 9.6 0 17.6-3.1 25-11.1l-4.4-0.1z"/>
  <path class="cls-1" d="m62.3 26.7c0.7 2.6 1.4 5.4 1.4 8.9 0 4.4-0.9 8.8-3.3 13.4 0.8 0.3 2.4 0.6 3.3 0.9 2.1-4.3 3.3-9.1 3.3-14.3 0-3.7-0.6-7.7-2-11.2l-2.7 2.3z"/>
  <path class="cls-1" d="m64.2 51.7-5.9-1.1-1.2-7.3c-0.4-2.1-1.3-4.5-2.9-6.4 0.5-1.7 0.8-3.5 1-5.3 0.6-3.7 7.3-7.3 7.7-8.5-0.9-0.8-9.5-0.1-14.4 1-4.5 0.9-7.2 2.1-8.6 1.6-0.7-0.3 7-3.4 16.7-4 2.7-0.1 6.6 0.1 6.8 0.3 0.1 0.1 0.1-1.5 0-2.3-0.8-2.2-3.8-3.4-4.5-4.9-2.4-4.1-6.5-2.4-8.3-0.9 1.4 1.3 4.4 0.5 7.2 2.2 1.5 0.9 2.3 1.9 2 2s-2.6-1.5-6-1.8l-2.3-0.2c-1.6-0.2-2.4-3.9-6.2-3.9-2.5 0-4 1.4-5 3.2-5.2 3.2-11 4.2-15.3 5.6-2.3 0.6-7.9 9.7-9.6 14.4 3.2 0.8 7.5 5.5 7.8 9.7-3.4-3.3-6.6-8.3-12.4-8.5-2.3 0-4 1.6-3.8 4.1 0.5 5.8 3.7 10.5 6 13.4h17c-1.4-2.8-3.3-2-6.8-2.1-2.5 0-7.9-2.2-10.3-6.9 6.8 6.1 11.2 5.5 15.8 5.1-1.4-2.6-4.2-8.8-4.3-11.6-0.1-2.6 2.4-4.3 4.5-5.9 1.8-1.2 3.6-3 5.9-3.2-3.9 4-8.4 6.2-8.4 9 0 3.2 4.5 14.6 7.8 15.4 1.5 0.4 6.2 0.2 14.1 0.2-1-2.8-4.7-2.8-5.7-2.8-2.7 0-6.7 0.3-8.1-3.4-1.3-3.7-0.9-6.4-3.8-9.8 3.6-1.2 6.6-2.7 8.6-5.5-0.3 1.8-2.5 6-6.5 6.4 2.3 1.8 2.3 6.1 2.9 8.3 0.7 1.7 2.7 2.6 4 2.6 1.7 0 5.3-1.2 9.4-4.4l-0.2-0.6 1.6-1.6c0 2.2 2.9 5.3 3.1 7.8-1.5 0.4-3.3 1.4-3.5 3h17.4c-0.4-0.7-0.9-2.1-3.3-2.4zm-38.1-28.3c2.4-1.2 7.3-1.2 12.4-4.6-3.4 4.8-9.7 4.6-12.6 6.6-1.6 1.2-5.2 4.9-5.5 5.2 0.5-1 4.3-6.5 5.7-7.2zm16.3-6.5c0-1.5 1.1-2.8 2.7-2.8 1.4 0 3.1 1.3 3 3-0.2 3.6-5.4 4.6-5.7-0.2z"/>
  <path class="cls-2" d="m42.4 17c2.5-1.3 3.9-1.1 5.7 0 0-4-5.7-4-5.7 0z"/>
  <path class="cls-2" d="m42.5 17.7c1.8 2 4.5 1.9 5.6-0.1-0.2 3.2-5.3 3.8-5.6 0.1z"/>
  <path class="cls-3" d="m39.4 32.7c-2 2.8-4.9 4.3-8.7 5.4 2.8 3.3 2.5 6 3.7 9.7 1.3 3.7 4.7 3.7 7.6 3.7 1.6 0 2.9 0 4.1 0.2-1.8-1.4-4.2-1.6-5.8-1.6-2.4 0-3.9-1.3-4.4-3.2-0.8-3-0.8-6-3-7.9 3.8-0.4 6.3-4.5 6.5-6.3z"/>
  <path class="cls-3" d="m48.7 26.9c-4.8 1.2-4 5.2-3.3 7.3 0.7 3.2-1.8 4.2-2.4 3.9 1.7-2.5-0.5-4.9-0.5-4.9 1.1 4.4-3.4 4.6-3.6 8-0.2 2.5 1.5 4.2 1.5 4.2 7-1.5 11.4-5.5 11.4-9.9 0.1-3.4-2.2-4.6-2.2-4.6 1.2 1.6 0.2 4.5 0 4.3-0.2-0.9-1.8-2.3-2.1-3.8s-0.2-3 1.2-4.5z"/>
  <path class="cls-4" d="m46.7 33.5c0.9 4.1-2.3 7.8-4.4 6.5-2 1.3-1.8 3.2-0.3 4.7 1.6-0.4 3.7-1.3 4.7-2 2.8-3.8 1.6-6.7 0-9.2z"/>
  <path class="cls-5" d="m42.5 17c0 2 4.4 3.4 5.6 0-1-1.5-3.9-1.6-5.6 0z"/>
</svg>
